<svg width="159" height="114" viewBox="0 0 159 114" fill="none" xmlns="http://www.w3.org/2000/svg">
<g filter="url(#filter0_dd_153_12603)">
<rect x="40.5" y="20.5" width="78" height="33" rx="16.5" stroke="#253B80"/>
<path d="M72.1038 36.2277C72.1038 32.6 67.645 29.6426 62.1444 29.6426C56.6443 29.6426 52.1854 32.6 52.1854 36.2277C52.1854 36.3218 52.1843 36.5807 52.1843 36.6135C52.1843 40.4622 56.0816 43.5794 62.1432 43.5794C68.2424 43.5794 72.1038 40.4633 72.1038 36.6141C72.1038 36.4798 72.1038 36.4022 72.1038 36.2277Z" fill="#0A0080"/>
<path d="M71.723 36.2251C71.723 39.6454 67.4357 42.4181 62.1469 42.4181C56.8581 42.4181 52.5708 39.6454 52.5708 36.2251C52.5708 32.8042 56.8581 30.0314 62.1469 30.0314C67.4357 30.0314 71.723 32.8042 71.723 36.2251Z" fill="#00BCFF"/>
<path d="M58.9662 34.2709C58.9612 34.2806 58.8659 34.3809 58.9275 34.4608C59.0788 34.6562 59.5457 34.7679 60.0176 34.6608C60.2983 34.5973 60.6587 34.3078 61.0079 34.0273C61.3856 33.7236 61.7611 33.4199 62.1383 33.2986C62.5373 33.17 62.7934 33.2255 62.9626 33.2771C63.1482 33.3326 63.3662 33.4561 63.7142 33.7202C64.3693 34.2182 67.0039 36.5437 67.459 36.9454C67.8261 36.7777 69.4553 36.0688 71.6695 35.5753C71.4773 34.382 70.7588 33.2895 69.6699 32.3954C68.1523 33.0402 66.2972 33.3768 64.4837 32.481C64.4741 32.477 63.4923 32.0073 62.5244 32.0305C61.0846 32.0639 60.4614 32.694 59.8018 33.3604L58.9662 34.2709Z" fill="white"/>
<path d="M67.3525 37.1988C67.3216 37.171 64.2544 34.4575 63.56 33.93C63.1576 33.6251 62.934 33.5469 62.6992 33.5169C62.577 33.5004 62.4078 33.5237 62.2901 33.5565C61.9667 33.6455 61.5441 33.9311 61.1686 34.232C60.7803 34.5447 60.4137 34.8394 60.0741 34.9164C59.6398 35.015 59.1096 34.8983 58.8675 34.7334C58.7694 34.6666 58.7005 34.5895 58.6674 34.5113C58.5778 34.3017 58.7425 34.1339 58.77 34.1062L59.6162 33.1803C59.7149 33.0811 59.8135 32.982 59.915 32.884C59.642 32.9202 59.3893 32.9905 59.1438 33.0596C58.8372 33.1469 58.5425 33.2296 58.2437 33.2296C58.1193 33.2296 57.4519 33.1191 57.3252 33.084C56.5591 32.8721 55.8866 32.6658 54.8828 32.1915C53.6796 33.0976 52.8748 34.2297 52.6422 35.4768C52.8154 35.5233 53.0939 35.6072 53.2111 35.6332C55.9336 36.2452 56.7816 36.8758 56.9357 37.0079C57.1021 36.8203 57.3426 36.7019 57.611 36.7019C57.912 36.7024 58.1838 36.8549 58.3485 37.0917C58.5043 36.9671 58.7196 36.8611 58.9975 36.8611C59.1236 36.8611 59.2548 36.8849 59.387 36.9302C59.6941 37.0368 59.8527 37.2436 59.9351 37.4306C60.0383 37.3835 60.1649 37.349 60.314 37.3495C60.4608 37.3495 60.6133 37.383 60.7668 37.4504C61.269 37.668 61.3469 38.1666 61.3015 38.5423C61.3373 38.5383 61.3732 38.5366 61.4096 38.5366C62.0048 38.5372 62.489 39.0262 62.489 39.6285C62.489 39.8149 62.4419 39.99 62.3596 40.1436C62.5215 40.2359 62.9346 40.4439 63.2972 40.3974C63.5869 40.3606 63.6968 40.2603 63.736 40.2042C63.7629 40.1657 63.7915 40.1203 63.7651 40.088L62.9968 39.2251C62.9968 39.2251 62.8701 39.1038 62.9122 39.0573C62.9553 39.0092 63.0338 39.0783 63.0887 39.1248C63.4799 39.4551 63.9574 39.9532 63.9574 39.9532C63.9652 39.9588 63.9972 40.0217 64.1737 40.054C64.3256 40.0812 64.5946 40.0654 64.7806 39.9107C64.8277 39.8716 64.8748 39.8229 64.914 39.7724C64.9112 39.7747 64.9084 39.7787 64.9056 39.7798C65.1018 39.5254 64.8838 39.2681 64.8838 39.2681L63.9865 38.2499C63.9865 38.2499 63.8587 38.1298 63.9019 38.0816C63.9411 38.0397 64.0235 38.1031 64.0801 38.1502C64.3637 38.3904 64.7649 38.7973 65.15 39.178C65.2245 39.2341 65.563 39.4455 66.0102 39.148C66.282 38.9678 66.3364 38.7468 66.3286 38.5797C66.3101 38.3587 66.1391 38.2012 66.1391 38.2012L64.914 36.9557C64.914 36.9557 64.7846 36.8441 64.8305 36.7874C64.8681 36.7398 64.9521 36.8084 65.0071 36.8549C65.3971 37.1852 66.4541 38.1649 66.4541 38.1649C66.4692 38.1757 66.8341 38.4386 67.2852 38.1479C67.4466 38.0437 67.5497 37.8867 67.5587 37.7037C67.5738 37.3869 67.3525 37.1988 67.3525 37.1988Z" fill="white"/>
<path d="M61.4112 38.7775C61.2212 38.7753 61.0133 38.8892 60.9864 38.8727C60.9713 38.8625 60.9976 38.7855 61.0155 38.7407C61.034 38.6965 61.284 37.9355 60.6742 37.6709C60.2074 37.4686 59.9221 37.6964 59.8241 37.7995C59.7983 37.8267 59.7871 37.8245 59.7837 37.7899C59.7747 37.6528 59.7137 37.2822 59.3113 37.1576C58.7357 36.9796 58.3653 37.3859 58.2711 37.5327C58.2291 37.2006 57.9522 36.9434 57.612 36.9428C57.2427 36.9428 56.9434 37.2448 56.9434 37.6182C56.9429 37.9911 57.2421 38.2936 57.6115 38.2936C57.7908 38.2942 57.9533 38.2217 58.0733 38.1055C58.0772 38.1089 58.0789 38.1152 58.0766 38.1282C58.0486 38.2948 57.9971 38.9022 58.6259 39.1498C58.8781 39.2484 59.0927 39.1747 59.2704 39.049C59.323 39.011 59.332 39.0269 59.3242 39.0773C59.3017 39.2337 59.3303 39.568 59.7944 39.7578C60.1469 39.9029 60.3559 39.7544 60.4927 39.6269C60.5521 39.572 60.5683 39.5805 60.5711 39.6654C60.5879 40.1176 60.9595 40.4763 61.4101 40.4769C61.8747 40.4769 62.2513 40.0972 62.2513 39.628C62.2519 39.1583 61.8758 38.7826 61.4112 38.7775Z" fill="white"/>
<path d="M61.409 40.4142C60.9882 40.4136 60.6457 40.0827 60.63 39.6618C60.6295 39.6255 60.6256 39.5292 60.5454 39.5292C60.5118 39.5292 60.4832 39.5496 60.4501 39.5796C60.3577 39.6663 60.24 39.7547 60.0679 39.7547C59.9895 39.7547 59.9048 39.736 59.8157 39.6992C59.3708 39.5173 59.3646 39.2085 59.3825 39.0844C59.3876 39.051 59.3892 39.0165 59.3668 38.9898L59.3394 38.9655H59.3119C59.2895 38.9655 59.266 38.9745 59.2346 38.9972C59.1057 39.0884 58.9824 39.1326 58.8568 39.1326C58.7879 39.1326 58.7173 39.1184 58.6461 39.0907C58.061 38.8607 58.1075 38.302 58.1361 38.1343C58.14 38.0998 58.1316 38.0737 58.1103 38.0561L58.0689 38.0216L58.0302 38.059C57.9164 38.17 57.7668 38.2312 57.6104 38.2312C57.2747 38.2306 57.0018 37.9553 57.0024 37.6165C57.0024 37.2771 57.2759 37.0023 57.611 37.0023C57.9142 37.0023 58.172 37.2329 58.2107 37.5389L58.2314 37.7037L58.3211 37.5644C58.3311 37.5479 58.5766 37.1723 59.0283 37.1729C59.1141 37.1729 59.2026 37.1865 59.2923 37.2148C59.6521 37.3258 59.7132 37.6556 59.7227 37.7933C59.7289 37.8731 59.7855 37.8771 59.7967 37.8771C59.8275 37.8771 59.8505 37.8573 59.8667 37.8397C59.9345 37.7683 60.0825 37.6494 60.314 37.6494C60.4199 37.6494 60.5331 37.6748 60.6491 37.7253C61.2213 37.9734 60.9618 38.7083 60.959 38.7162C60.9097 38.838 60.9075 38.8918 60.954 38.923L60.9764 38.9337H60.9932C61.019 38.9337 61.0509 38.9224 61.1036 38.9043C61.1815 38.8771 61.2992 38.8363 61.409 38.8363H61.4096C61.84 38.8414 62.1903 39.1955 62.1903 39.6261C62.1897 40.0606 61.8395 40.4142 61.409 40.4142ZM67.4707 36.872C66.5258 36.0386 64.3424 34.1197 63.7511 33.6704C63.4132 33.4138 63.1828 33.2778 62.9805 33.2172C62.8897 33.1894 62.7636 33.1577 62.6017 33.1577C62.4515 33.1577 62.2901 33.1849 62.1214 33.2392C61.7391 33.3616 61.3586 33.6676 60.9898 33.9633L60.9708 33.9786C60.6278 34.2545 60.2736 34.5395 60.0052 34.6001C59.888 34.6268 59.7675 34.6404 59.6476 34.6404C59.3467 34.6404 59.0771 34.5525 58.9756 34.4222C58.9588 34.4001 58.9695 34.3656 59.0087 34.3151L59.0143 34.3083L59.8454 33.403C60.4961 32.7446 61.1109 32.1237 62.5266 32.0908C62.5495 32.0903 62.5736 32.0897 62.5972 32.0897C63.4782 32.0903 64.3586 32.4891 64.4572 32.535C65.2833 32.9424 66.1363 33.1492 66.9932 33.1497C67.8865 33.1503 68.8085 32.9265 69.7774 32.4755C69.6693 32.3837 69.5566 32.2942 69.4406 32.2064C68.5893 32.5792 67.7784 32.7679 66.996 32.7679C66.1963 32.7667 65.3982 32.573 64.6226 32.1905C64.5817 32.1707 63.6093 31.7073 62.5972 31.7067C62.5708 31.7067 62.5439 31.7073 62.5176 31.7078C61.3289 31.7356 60.6592 32.1628 60.2086 32.5367C59.7709 32.5475 59.3926 32.654 59.0569 32.7492C58.7565 32.833 58.4976 32.9061 58.2448 32.9061C58.1406 32.9061 57.9534 32.8965 57.9366 32.8959C57.6463 32.8868 56.1819 32.5243 55.0173 32.0784C54.8985 32.1634 54.7842 32.2512 54.6726 32.3407C55.8893 32.8449 57.37 33.2347 57.8374 33.2653C57.9674 33.2744 58.1059 33.2891 58.2443 33.2891C58.5536 33.2891 58.8619 33.2019 59.1606 33.1174C59.3366 33.067 59.531 33.0126 59.7362 32.973C59.6812 33.0274 59.6269 33.0823 59.5719 33.1373L58.7279 34.0608C58.6612 34.1287 58.5167 34.31 58.6119 34.5327C58.65 34.6228 58.7268 34.7089 58.8344 34.782C59.0351 34.9191 59.3954 35.0114 59.7306 35.012C59.8572 35.012 59.9777 34.999 60.0881 34.9741C60.4417 34.8936 60.8133 34.5945 61.2067 34.2783C61.52 34.0268 61.965 33.7072 62.3063 33.6132C62.4016 33.5871 62.5187 33.5707 62.6123 33.5707C62.6403 33.5713 62.6672 33.5718 62.6919 33.5758C62.9172 33.6041 63.1346 33.6817 63.5236 33.9769C64.2168 34.5032 67.2841 37.2159 67.3143 37.2431C67.316 37.2448 67.5116 37.4148 67.4982 37.6986C67.4909 37.8567 67.404 37.9972 67.2533 38.0947C67.1221 38.1785 66.987 38.221 66.8509 38.221C66.6457 38.221 66.5045 38.1236 66.495 38.1173C66.4838 38.1077 65.433 37.1338 65.0463 36.8063C64.9846 36.7548 64.9246 36.7083 64.8641 36.7083C64.8322 36.7083 64.8036 36.7219 64.784 36.7468C64.7235 36.8227 64.7913 36.9276 64.872 36.9967L66.0993 38.2437C66.101 38.2454 66.2523 38.3887 66.2686 38.5802C66.2787 38.787 66.1806 38.9598 65.9771 39.0946C65.8326 39.191 65.6857 39.2403 65.5422 39.2403C65.3539 39.2403 65.2211 39.153 65.192 39.1326L65.016 38.957C64.6943 38.6369 64.362 38.306 64.1187 38.1009C64.0593 38.051 63.996 38.0052 63.9355 38.0052C63.9058 38.0052 63.8789 38.0159 63.8581 38.038C63.8307 38.0692 63.8111 38.1253 63.8806 38.2182C63.9086 38.2561 63.9422 38.2879 63.9422 38.2879L64.8383 39.3054C64.8456 39.3145 65.0227 39.5275 64.8585 39.7394L64.8266 39.7796C64.8002 39.8096 64.7711 39.8374 64.7436 39.8612C64.5906 39.9881 64.3866 40.0017 64.3059 40.0017C64.2628 40.0017 64.2207 39.9977 64.1849 39.9909C64.0963 39.9751 64.0369 39.9502 64.0078 39.9156L63.9971 39.9043C63.9484 39.8533 63.4967 39.387 63.1229 39.072C63.0741 39.0301 63.0124 38.9774 62.9491 38.9774C62.9177 38.9774 62.8897 38.9898 62.8679 39.0142C62.7939 39.0958 62.9048 39.2182 62.9519 39.2635L63.7164 40.115C63.7152 40.1224 63.7057 40.1399 63.6872 40.1671C63.6598 40.2051 63.5673 40.2992 63.2899 40.3343C63.2568 40.3388 63.2226 40.3405 63.1884 40.3405C62.9026 40.3405 62.5977 40.2 62.4408 40.1162C62.5125 39.9632 62.5495 39.7949 62.5495 39.6266C62.5495 38.9904 62.039 38.4731 61.4102 38.4731C61.3967 38.4731 61.3827 38.4731 61.3693 38.4737C61.3894 38.1836 61.3491 37.6341 60.7909 37.3921C60.63 37.3219 60.4698 37.2862 60.3145 37.2862C60.1923 37.2862 60.0752 37.3071 59.9654 37.3496C59.8494 37.1225 59.6577 36.957 59.4072 36.8709C59.2688 36.8227 59.1309 36.7978 58.9981 36.7978C58.7655 36.7978 58.552 36.8669 58.3609 37.004C58.1782 36.7746 57.9019 36.638 57.611 36.638C57.3566 36.638 57.1116 36.7412 56.9306 36.923C56.6924 36.7395 55.7492 36.1332 53.2239 35.5536C53.1017 35.5259 52.8215 35.4443 52.6495 35.3939C52.6209 35.5316 52.599 35.6715 52.5845 35.8126C52.5845 35.8126 53.0502 35.9253 53.1421 35.9463C55.7218 36.5253 56.5736 37.1276 56.7182 37.2414C56.6689 37.3598 56.6437 37.4873 56.6437 37.6165C56.6431 38.1547 57.0769 38.5938 57.6099 38.5944C57.6698 38.5944 57.7292 38.5887 57.787 38.5779C57.8677 38.9745 58.1243 39.2754 58.5161 39.4295C58.631 39.4737 58.747 39.4969 58.8608 39.4969C58.9342 39.4969 59.0087 39.4878 59.081 39.4691C59.1533 39.655 59.3164 39.8867 59.6807 40.0363C59.8085 40.0884 59.9362 40.1156 60.0601 40.1156C60.1615 40.1156 60.2607 40.0975 60.3554 40.0623C60.5297 40.4923 60.9456 40.7768 61.4085 40.7768C61.7156 40.7773 62.0104 40.651 62.2256 40.4272C62.4094 40.5309 62.7978 40.7178 63.1901 40.7184C63.2411 40.7184 63.2887 40.7144 63.3364 40.7088C63.7264 40.6595 63.9075 40.5048 63.991 40.3853C64.0061 40.3643 64.0195 40.3422 64.0313 40.319C64.1232 40.3462 64.2241 40.3677 64.3401 40.3683C64.5531 40.3683 64.7576 40.2946 64.9639 40.1422C65.1668 39.9949 65.3108 39.7824 65.3315 39.6017C65.3321 39.5989 65.3326 39.5966 65.3332 39.5938C65.401 39.6079 65.4716 39.6153 65.5417 39.6153C65.7608 39.6153 65.976 39.5462 66.1823 39.4097C66.5796 39.1468 66.6485 38.8029 66.6424 38.5774C66.7113 38.5921 66.7825 38.5995 66.8531 38.5995C67.0588 38.5995 67.2611 38.5372 67.4533 38.4131C67.6999 38.2539 67.8479 38.0103 67.8703 37.7264C67.886 37.5338 67.8389 37.3394 67.738 37.1723C68.4038 36.8822 69.9254 36.3213 71.7171 35.9128C71.7065 35.7723 71.6863 35.6335 71.6616 35.4953C69.4939 35.982 67.8759 36.6896 67.4707 36.872Z" fill="#0A0080"/>
<path d="M105.149 34.6446C104.975 34.8786 104.726 34.9954 104.4 34.9954C104.074 34.9954 103.823 34.8786 103.648 34.6446C103.472 34.4106 103.384 34.0774 103.384 33.6462C103.384 33.215 103.472 32.883 103.648 32.6501C103.823 32.4178 104.074 32.301 104.4 32.301C104.726 32.301 104.975 32.4178 105.149 32.6501C105.324 32.883 105.412 33.215 105.412 33.6462C105.412 34.0774 105.324 34.4106 105.149 34.6446ZM106.041 32.0319C105.681 31.5769 105.135 31.3491 104.403 31.3491C103.672 31.3491 103.126 31.5769 102.767 32.0319C102.407 32.4875 102.227 33.0252 102.227 33.6462C102.227 34.278 102.407 34.818 102.767 35.2673C103.126 35.715 103.672 35.9399 104.403 35.9399C105.135 35.9399 105.681 35.715 106.041 35.2673C106.4 34.818 106.58 34.278 106.58 33.6462C106.58 33.0252 106.4 32.4875 106.041 32.0319Z" fill="#0A0080"/>
<path d="M96.287 34.112C96.2797 34.4899 96.1726 34.7506 95.967 34.8928C95.7613 35.0356 95.5366 35.1075 95.2928 35.1075C95.1387 35.1075 95.0081 35.0639 94.9005 34.9783C94.7929 34.8922 94.7396 34.7528 94.7396 34.5596C94.7396 34.3437 94.827 34.1839 95.003 34.0802C95.1078 34.0202 95.2782 33.9681 95.5169 33.9267L95.7714 33.8791C95.898 33.8547 95.9978 33.8287 96.0707 33.8009C96.1446 33.7737 96.2158 33.7374 96.287 33.6921V34.112ZM96.8536 31.6506C96.4887 31.4641 96.0718 31.3695 95.6021 31.3695C94.8803 31.3695 94.3709 31.5599 94.0744 31.9401C93.8878 32.1837 93.7835 32.4937 93.7589 32.8716H94.8371C94.864 32.705 94.9167 32.573 94.9963 32.4756C95.1078 32.3435 95.2967 32.2772 95.564 32.2772C95.8028 32.2772 95.9838 32.3101 96.1071 32.3787C96.2298 32.4455 96.2915 32.5679 96.2915 32.7447C96.2915 32.8903 96.2119 32.9969 96.0505 33.066C95.9608 33.1056 95.8123 33.1385 95.6038 33.1651L95.2216 33.2127C94.7878 33.2677 94.4577 33.3606 94.2347 33.4904C93.8261 33.7284 93.6227 34.112 93.6227 34.6435C93.6227 35.0526 93.7488 35.3693 94.0027 35.5926C94.256 35.8158 94.5782 35.9093 94.9672 35.928C97.4056 36.0379 97.3781 34.6287 97.4006 34.3352V32.713C97.4006 32.1928 97.2179 31.8387 96.8536 31.6506Z" fill="#0A0080"/>
<path d="M91.2915 32.3363C91.5705 32.3363 91.7751 32.4235 91.9074 32.5975C91.9982 32.7261 92.0548 32.8717 92.0766 33.0327H93.2799C93.2137 32.419 93.0013 31.9906 92.6427 31.7475C92.2829 31.5062 91.8227 31.3843 91.2595 31.3843C90.5965 31.3843 90.0764 31.59 89.7004 32.0008C89.3238 32.4122 89.1355 32.9868 89.1355 33.7256C89.1355 34.3795 89.3058 34.9127 89.6466 35.3241C89.9873 35.7343 90.5192 35.94 91.2421 35.94C91.9657 35.94 92.5115 35.6941 92.8797 35.2011C93.1101 34.8957 93.2395 34.5716 93.267 34.2294H92.0682C92.0436 34.4555 91.9735 34.6402 91.8575 34.7824C91.742 34.9241 91.547 34.9954 91.2713 34.9954C90.8835 34.9954 90.6189 34.817 90.4783 34.4577C90.4015 34.2668 90.3628 34.0135 90.3628 33.6979C90.3628 33.367 90.4015 33.1018 90.4783 32.9018C90.6245 32.5255 90.8958 32.3363 91.2915 32.3363Z" fill="#0A0080"/>
<path d="M88.8138 31.3843C86.3428 31.3843 86.4891 33.5964 86.4891 33.5964V35.8431H87.61V33.7358C87.61 33.3908 87.6531 33.1346 87.7389 32.9686C87.8924 32.674 88.1934 32.5261 88.6417 32.5261C88.6753 32.5261 88.7196 32.5278 88.7745 32.5306C88.8289 32.5329 88.8911 32.538 88.9623 32.5465V31.3928C88.9124 31.3894 88.8805 31.3883 88.8665 31.3866C88.8519 31.3855 88.8345 31.3843 88.8138 31.3843Z" fill="#0A0080"/>
<path d="M83.1874 32.5584C83.3454 32.3946 83.5668 32.3125 83.8521 32.3125C84.1155 32.3125 84.3352 32.3895 84.5128 32.5448C84.6899 32.6989 84.7891 32.9261 84.8093 33.2247H82.8909C82.9307 32.9443 83.0299 32.7227 83.1874 32.5584ZM84.6944 34.6691C84.6473 34.7371 84.5969 34.7954 84.5409 34.8408C84.3828 34.9728 84.1676 35.0124 83.9143 35.0124C83.6744 35.0124 83.4872 34.9756 83.3174 34.8674C83.0378 34.694 82.8803 34.3999 82.8635 33.9676H85.966C85.9705 33.5959 85.9582 33.3114 85.9285 33.1131C85.8769 32.776 85.7637 32.4785 85.5894 32.2229C85.3961 31.9328 85.15 31.7204 84.853 31.5855C84.5565 31.4512 84.2231 31.3843 83.8521 31.3843C83.2272 31.3843 82.72 31.5832 82.3288 31.981C81.9376 32.3793 81.7415 32.9511 81.7415 33.6967C81.7415 34.4934 81.9584 35.068 82.3922 35.421C82.8254 35.774 83.3258 35.9513 83.8924 35.9513C84.579 35.9513 85.1131 35.7417 85.4947 35.323C85.7004 35.1025 85.8293 34.8844 85.8837 34.6691H84.6944Z" fill="#0A0080"/>
<path d="M81.2929 35.8421H80.2685V33.2345C80.2685 32.9965 80.1911 32.4299 79.5152 32.4299C79.0647 32.4299 78.739 32.7585 78.739 33.2345V35.8421H77.714V33.2345C77.714 32.9965 77.644 32.4299 76.9686 32.4299C76.5102 32.4299 76.1919 32.7585 76.1919 33.2345V35.8421H75.1674V33.2594C75.1674 32.1828 75.8736 31.3686 76.9686 31.3686C77.5123 31.3686 77.9544 31.5998 78.2419 31.9698C78.5446 31.5998 78.9946 31.3686 79.5152 31.3686C80.6333 31.3686 81.2929 32.15 81.2929 33.2594V35.8421Z" fill="#0A0080"/>
<path d="M100.548 34.6526C100.385 34.89 100.144 35.0084 99.8292 35.0084C99.5136 35.0084 99.2788 34.8888 99.1241 34.6509C98.9694 34.4117 98.8921 34.065 98.8921 33.6672C98.8921 33.2983 98.9678 32.9895 99.1202 32.7408C99.2721 32.492 99.5108 32.3674 99.837 32.3674C100.051 32.3674 100.238 32.4354 100.4 32.5725C100.663 32.7991 100.795 33.2054 100.795 33.7324C100.795 34.1086 100.712 34.4157 100.548 34.6526ZM101.893 30.0215C101.893 30.0215 100.763 29.8997 100.763 30.8171L100.763 32.0314C100.638 31.8285 100.475 31.6693 100.275 31.5554C100.075 31.4409 99.8454 31.3831 99.5865 31.3831C99.0266 31.3831 98.5799 31.5939 98.2448 32.0155C97.9097 32.4371 97.7432 33.0445 97.7432 33.7794C97.7432 34.4168 97.913 34.9393 98.2527 35.3467C98.5928 35.753 99.2598 35.9314 99.8516 35.9314C101.916 35.9314 101.892 34.1409 101.892 34.1409L101.893 30.0215Z" fill="#0A0080"/>
<path d="M78.1674 39.9695C78.1674 39.5423 78.085 39.2136 77.9197 38.983C77.7549 38.7535 77.519 38.6374 77.2107 38.6374C76.9148 38.6374 76.6834 38.7535 76.518 38.983C76.3651 39.1915 76.2883 39.5213 76.2883 39.9695C76.2883 40.3877 76.3701 40.6987 76.5354 40.9073C76.6996 41.1379 76.9367 41.2529 77.2438 41.2529C77.5296 41.2529 77.7549 41.1379 77.9197 40.9073C78.085 40.6772 78.1674 40.3656 78.1674 39.9695ZM76.2883 43.0372C76.2883 43.1902 76.2333 43.3222 76.1224 43.4316C76.0131 43.5415 75.8814 43.5965 75.7273 43.5965H75.1674V39.6567C75.1674 38.8906 75.4224 38.4113 75.8427 38.0866C76.1207 37.8724 76.5343 37.6679 77.3099 37.6679C77.8334 37.6679 78.4465 37.8735 78.7777 38.2815C79.1493 38.7405 79.304 39.2521 79.304 39.9202C79.304 40.6115 79.1392 41.169 78.8102 41.598C78.4807 42.015 78.057 42.2224 77.5403 42.2224C77.2657 42.2224 77.0241 42.1731 76.8156 42.0751C76.5948 41.9651 76.42 41.7952 76.2883 41.5645V43.0372Z" fill="#0A0080"/>
<path d="M84.8881 39.9705C84.8881 40.7264 85.1044 41.1451 85.5359 41.2278C85.9669 41.3088 86.2858 41.2074 86.4909 40.923C86.5884 40.8034 86.6579 40.6136 86.7016 40.3569C86.7442 40.0997 86.7476 39.8447 86.7095 39.5931C86.6725 39.3404 86.5828 39.116 86.4422 38.9188C86.3026 38.7222 86.0969 38.623 85.8274 38.623C85.4603 38.623 85.2126 38.7607 85.0825 39.0333C84.9525 39.3075 84.8881 39.6197 84.8881 39.9705ZM86.7341 41.8596V41.5814C86.5402 41.8885 86.2774 42.0789 85.9484 42.1559C85.6194 42.2324 85.2927 42.2052 84.9699 42.0732C84.6454 41.9423 84.3674 41.6987 84.1354 41.3428C83.9034 40.9859 83.7879 40.5178 83.7879 39.937C83.7879 39.2588 83.9415 38.708 84.2486 38.2865C84.5563 37.8649 85.0506 37.6722 85.7304 37.6535C86.4001 37.6354 86.7896 37.789 87.1713 38.0808C87.5882 38.4009 87.8348 38.8916 87.8348 39.6583V41.9758C87.8365 42.7129 87.3276 44.0796 85.7304 43.964C84.7407 43.8915 84.1915 43.4807 83.8849 42.5509H85.0669C85.1532 42.7039 85.2849 42.8212 85.4636 42.9028C85.6407 42.9861 85.8201 43.0076 85.9966 42.9691C86.1748 42.9305 86.3368 42.8234 86.4836 42.6489C86.6288 42.4738 86.7123 42.2103 86.7341 41.8596Z" fill="#0A0080"/>
<path d="M82.2602 40.4279C82.2529 40.8059 82.1459 41.066 81.9408 41.2087C81.7351 41.351 81.5104 41.4224 81.2666 41.4224C81.1119 41.4224 80.9813 41.3793 80.8743 41.2937C80.7667 41.2082 80.7129 41.0682 80.7129 40.875C80.7129 40.6591 80.8009 40.4993 80.9768 40.3962C81.0816 40.3356 81.252 40.2834 81.4902 40.2421L81.7446 40.1945C81.8719 40.1701 81.9716 40.1441 82.0439 40.1163C82.1179 40.0891 82.1891 40.0534 82.2602 40.0081V40.4279ZM82.8268 37.9665C82.462 37.7801 82.045 37.6855 81.5759 37.6855C80.8535 37.6855 80.3447 37.8759 80.0476 38.2561C79.8616 38.4991 79.7568 38.8091 79.7327 39.1876H80.8115C80.8379 39.0204 80.8905 38.8884 80.9701 38.791C81.0816 38.6589 81.2705 38.5932 81.5373 38.5932C81.7771 38.5932 81.9576 38.6261 82.0803 38.6941C82.2031 38.7615 82.2653 38.8839 82.2653 39.0607C82.2653 39.2057 82.1851 39.3128 82.0243 39.3819C81.9352 39.4216 81.7861 39.4545 81.5776 39.4811L81.1954 39.5281C80.7616 39.5837 80.4315 39.6766 80.2085 39.8058C79.7999 40.0438 79.5959 40.4279 79.5959 40.9589C79.5959 41.368 79.7226 41.6847 79.9765 41.908C80.2298 42.1306 80.552 42.2253 80.941 42.2434C83.3783 42.3533 83.3514 40.9436 83.3738 40.6506V39.0284C83.3738 38.5082 83.1917 38.1546 82.8268 37.9665Z" fill="#0A0080"/>
<path d="M91.1839 40.9353C91.0096 41.1699 90.7596 41.2867 90.434 41.2867C90.1078 41.2867 89.8568 41.1699 89.6819 40.9353C89.5054 40.7019 89.4179 40.3693 89.4179 39.9381C89.4179 39.5069 89.5054 39.1748 89.6819 38.942C89.8568 38.7091 90.1078 38.5935 90.434 38.5935C90.7596 38.5935 91.0096 38.7091 91.1839 38.942C91.3582 39.1748 91.4456 39.5069 91.4456 39.9381C91.4456 40.3693 91.3582 40.7019 91.1839 40.9353ZM92.0749 38.3238C91.7151 37.8682 91.1693 37.641 90.4368 37.641C89.706 37.641 89.1596 37.8682 88.8003 38.3238C88.4405 38.7788 88.2606 39.3165 88.2606 39.9381C88.2606 40.5699 88.4405 41.1093 88.8003 41.5586C89.1596 42.0063 89.706 42.2312 90.4368 42.2312C91.1693 42.2312 91.7151 42.0063 92.0749 41.5586C92.4342 41.1093 92.613 40.5699 92.613 39.9381C92.613 39.3165 92.4342 38.7788 92.0749 38.3238Z" fill="#0A0080"/>
</g>
<defs>
<filter id="filter0_dd_153_12603" x="0" y="0" width="159" height="114" filterUnits="userSpaceOnUse" color-interpolation-filters="sRGB">
<feFlood flood-opacity="0" result="BackgroundImageFix"/>
<feColorMatrix in="SourceAlpha" type="matrix" values="0 0 0 0 0 0 0 0 0 0 0 0 0 0 0 0 0 0 127 0" result="hardAlpha"/>
<feOffset dy="2"/>
<feGaussianBlur stdDeviation="10"/>
<feColorMatrix type="matrix" values="0 0 0 0 0.717647 0 0 0 0 0.717647 0 0 0 0 0.717647 0 0 0 0.08 0"/>
<feBlend mode="normal" in2="BackgroundImageFix" result="effect1_dropShadow_153_12603"/>
<feColorMatrix in="SourceAlpha" type="matrix" values="0 0 0 0 0 0 0 0 0 0 0 0 0 0 0 0 0 0 127 0" result="hardAlpha"/>
<feOffset dy="20"/>
<feGaussianBlur stdDeviation="20"/>
<feColorMatrix type="matrix" values="0 0 0 0 0.717647 0 0 0 0 0.717647 0 0 0 0 0.717647 0 0 0 0.08 0"/>
<feBlend mode="normal" in2="effect1_dropShadow_153_12603" result="effect2_dropShadow_153_12603"/>
<feBlend mode="normal" in="SourceGraphic" in2="effect2_dropShadow_153_12603" result="shape"/>
</filter>
</defs>
</svg>
